{
  "source": "C:\\Users\\Peter\\Desktop\\stuff\\MIUN\\quantitative_research\\video_compression\\videos\\BVI-HD\\RockWave_1920x1080_30fps.mp4",
  "output": "C:\\Users\\Peter\\Desktop\\stuff\\MIUN\\quantitative_research\\video_compression\\compressed_videos\\BVI-HD\\hevc\\2.5\\RockWave_1920x1080_30fps_hevc.mp4",
  "codec": "hevc",
  "ok": "Input #0, mov,mp4,m4a,3gp,3g2,mj2, from 'C:\\Users\\Peter\\Desktop\\stuff\\MIUN\\quantitative_research\\video_compression\\videos\\BVI-HD\\RockWave_1920x1080_30fps.mp4':\n  Metadata:\n    major_brand     : isom\n    minor_version   : 512\n    compatible_brands: isomiso2avc1mp41\n    encoder         : Lavf54.28.101\n  Duration: 00:00:05.00, start: 0.000000, bitrate: 303557 kb/s\n  Stream #0:0[0x1](und): Video: h264 (High 4:4:4 Predictive) (avc1 / 0x31637661), yuv420p(progressive), 1920x1080, 303553 kb/s, 30 fps, 30 tbr, 30 tbn (default)\n    Metadata:\n      handler_name    : VideoHandler\n      vendor_id       : [0][0][0][0]\n[out#0/mp4 @ 0000023269fbab00] Codec AVOption b:a (set bitrate (in bits/s)) has not been used for any stream. The most likely reason is either wrong type (e.g. a video option with no video streams) or that it is a private option of some decoder which was not actually used for any stream.\nStream mapping:\n  Stream #0:0 -> #0:0 (h264 (native) -> hevc (libx265))\nPress [q] to stop, [?] for help\n[libx265 @ 000002326add75c0] Unknown option: \"aq-mode.\nx265 [info]: HEVC encoder version 4.1+190-8f11c33ac\nx265 [info]: build info [Windows][GCC 15.1.0][64 bit] 10bit\nx265 [info]: using cpu capabilities: MMX2 SSE2Fast LZCNT SSSE3 SSE4.2 AVX FMA3 BMI2 AVX2\nx265 [info]: Main 10 profile, Level-4 (Main tier)\nx265 [info]: Thread pool created using 12 threads\nx265 [info]: Slices                              : 1\nx265 [info]: frame threads / pool features       : 3 / wpp(17 rows)\nx265 [info]: Coding QT: max CU size, min CU size : 64 / 8\nx265 [info]: Residual QT: max TU size, max depth : 32 / 1 inter / 1 intra\nx265 [info]: ME / range / subpel / merge         : star / 57 / 3 / 3\nx265 [info]: Keyframe min / max / scenecut / bias  : 25 / 250 / 40 / 5.00 \nx265 [info]: Lookahead / bframes / badapt        : 25 / 4 / 2\nx265 [info]: b-pyramid / weightp / weightb       : 1 / 1 / 0\nx265 [info]: References / ref-limit  cu / depth  : 4 / on / on\nx265 [info]: AQ: mode / str / qg-size / cu-tree  : 2 / 1.0 / 32 / 1\nx265 [info]: Rate Control / qCompress            : ABR-2500 kbps / 0.60\nx265 [info]: VBV/HRD buffer / max-rate / init    : 2500 / 2500 / 0.750\nx265 [info]: tools: rect limit-modes rd=4 psy-rd=2.00 rdoq=2 psy-rdoq=1.00\nx265 [info]: tools: rskip mode=1 signhide tmvp strong-intra-smoothing lslices=4\nx265 [info]: tools: deblock sao dhdr10-info\nOutput #0, mp4, to 'C:\\Users\\Peter\\Desktop\\stuff\\MIUN\\quantitative_research\\video_compression\\compressed_videos\\BVI-HD\\hevc\\2.5\\RockWave_1920x1080_30fps_hevc.mp4':\n  Metadata:\n    major_brand     : isom\n    minor_version   : 512\n    compatible_brands: isomiso2avc1mp41\n    encoder         : Lavf62.3.100\n  Stream #0:0(und): Video: hevc (hev1 / 0x31766568), yuv420p10le(tv, progressive), 1920x1080, q=2-31, 2500 kb/s, 30 fps, 15360 tbn (default)\n    Metadata:\n      encoder         : Lavc62.11.100 libx265\n      handler_name    : VideoHandler\n      vendor_id       : [0][0][0][0]\n    Side data:\n      cpb: bitrate max/min/avg: 2500000/0/2500000 buffer size: 2500000 vbv_delay: N/A\nframe=    0 fps=0.0 q=0.0 size=       0KiB time=N/A bitrate=N/A speed=N/A elapsed=0:00:00.50    \nframe=    0 fps=0.0 q=0.0 size=       0KiB time=N/A bitrate=N/A speed=N/A elapsed=0:00:01.02    \nframe=    0 fps=0.0 q=0.0 size=       0KiB time=N/A bitrate=N/A speed=N/A elapsed=0:00:01.54    \nframe=    0 fps=0.0 q=0.0 size=       0KiB time=N/A bitrate=N/A speed=N/A elapsed=0:00:02.05    \nframe=    3 fps=1.2 q=50.6 size=       0KiB time=00:00:00.03 bitrate=  10.6kbits/s speed=0.013x elapsed=0:00:02.57    \nframe=    6 fps=1.9 q=46.1 size=       0KiB time=00:00:00.13 bitrate=   2.6kbits/s speed=0.0433x elapsed=0:00:03.08    \nframe=    9 fps=2.5 q=50.3 size=       0KiB time=00:00:00.23 bitrate=   1.5kbits/s speed=0.0647x elapsed=0:00:03.60    \nframe=   11 fps=2.7 q=48.4 size=       0KiB time=00:00:00.30 bitrate=   1.2kbits/s speed=0.073x elapsed=0:00:04.11    \nframe=   14 fps=3.0 q=45.5 size=       0KiB time=00:00:00.40 bitrate=   0.9kbits/s speed=0.0862x elapsed=0:00:04.64    \nframe=   16 fps=3.1 q=50.2 size=       0KiB time=00:00:00.46 bitrate=   0.8kbits/s speed=0.0905x elapsed=0:00:05.15    \nframe=   19 fps=3.4 q=48.5 size=       0KiB time=00:00:00.56 bitrate=   0.6kbits/s speed= 0.1x elapsed=0:00:05.66    \nframe=   21 fps=3.4 q=50.3 size=       0KiB time=00:00:00.63 bitrate=   0.6kbits/s speed=0.102x elapsed=0:00:06.17    \nframe=   24 fps=3.6 q=50.1 size=       0KiB time=00:00:00.73 bitrate=   0.5kbits/s speed=0.11x elapsed=0:00:06.68    \nframe=   26 fps=3.6 q=49.9 size=     256KiB time=00:00:00.80 bitrate=2621.9kbits/s speed=0.111x elapsed=0:00:07.21    \nframe=   29 fps=3.8 q=50.0 size=     256KiB time=00:00:00.90 bitrate=2330.6kbits/s speed=0.117x elapsed=0:00:07.72    \nframe=   31 fps=3.8 q=45.2 size=     256KiB time=00:00:00.96 bitrate=2169.8kbits/s speed=0.117x elapsed=0:00:08.23    \nframe=   33 fps=3.8 q=49.9 size=     256KiB time=00:00:01.03 bitrate=2029.8kbits/s speed=0.118x elapsed=0:00:08.75    \nframe=   36 fps=3.9 q=47.8 size=     256KiB time=00:00:01.13 bitrate=1850.7kbits/s speed=0.122x elapsed=0:00:09.27    \nframe=   38 fps=3.9 q=50.1 size=     256KiB time=00:00:01.20 bitrate=1747.9kbits/s speed=0.123x elapsed=0:00:09.79    \nframe=   41 fps=4.0 q=50.1 size=     256KiB time=00:00:01.30 bitrate=1613.5kbits/s speed=0.126x elapsed=0:00:10.31    \nframe=   44 fps=4.1 q=48.2 size=     256KiB time=00:00:01.40 bitrate=1498.2kbits/s speed=0.129x elapsed=0:00:10.82    \nframe=   46 fps=4.1 q=50.0 size=     256KiB time=00:00:01.46 bitrate=1430.1kbits/s speed=0.129x elapsed=0:00:11.33    \nframe=   48 fps=4.0 q=48.2 size=     256KiB time=00:00:01.53 bitrate=1367.9kbits/s speed=0.129x elapsed=0:00:11.85    \nframe=   51 fps=4.1 q=45.7 size=     512KiB time=00:00:01.63 bitrate=2568.2kbits/s speed=0.132x elapsed=0:00:12.36    \nframe=   53 fps=4.1 q=50.1 size=     512KiB time=00:00:01.70 bitrate=2467.4kbits/s speed=0.132x elapsed=0:00:12.88    \nframe=   56 fps=4.2 q=48.0 size=     512KiB time=00:00:01.80 bitrate=2330.4kbits/s speed=0.134x elapsed=0:00:13.39    \nframe=   58 fps=4.2 q=50.1 size=     512KiB time=00:00:01.86 bitrate=2247.1kbits/s speed=0.134x elapsed=0:00:13.91    \nframe=   62 fps=4.3 q=49.9 size=     512KiB time=00:00:02.00 bitrate=2097.3kbits/s speed=0.139x elapsed=0:00:14.43    \nframe=   64 fps=4.3 q=47.9 size=     512KiB time=00:00:02.06 bitrate=2029.7kbits/s speed=0.138x elapsed=0:00:14.94    \nframe=   67 fps=4.3 q=45.1 size=     512KiB time=00:00:02.16 bitrate=1936.0kbits/s speed=0.14x elapsed=0:00:15.45    \nframe=   71 fps=4.4 q=49.7 size=     512KiB time=00:00:02.30 bitrate=1823.8kbits/s speed=0.144x elapsed=0:00:15.97    \nframe=   73 fps=4.4 q=47.5 size=     512KiB time=00:00:02.36 bitrate=1772.4kbits/s speed=0.143x elapsed=0:00:16.49    \nframe=   76 fps=4.5 q=45.4 size=     512KiB time=00:00:02.46 bitrate=1700.5kbits/s speed=0.145x elapsed=0:00:17.01    \nframe=   79 fps=4.5 q=49.5 size=     768KiB time=00:00:02.56 bitrate=2451.4kbits/s speed=0.146x elapsed=0:00:17.52    \nframe=   82 fps=4.5 q=47.5 size=     768KiB time=00:00:02.66 bitrate=2359.4kbits/s speed=0.148x elapsed=0:00:18.03    \nframe=   85 fps=4.6 q=45.0 size=     768KiB time=00:00:02.76 bitrate=2274.1kbits/s speed=0.149x elapsed=0:00:18.55    \nframe=   88 fps=4.6 q=49.0 size=     768KiB time=00:00:02.86 bitrate=2194.8kbits/s speed=0.15x elapsed=0:00:19.07    \nframe=   90 fps=4.6 q=45.3 size=     768KiB time=00:00:02.93 bitrate=2144.9kbits/s speed=0.15x elapsed=0:00:19.58    \nframe=   94 fps=4.7 q=45.1 size=     768KiB time=00:00:03.06 bitrate=2051.7kbits/s speed=0.153x elapsed=0:00:20.10    \nframe=   97 fps=4.7 q=49.1 size=     768KiB time=00:00:03.16 bitrate=1986.9kbits/s speed=0.154x elapsed=0:00:20.61    \nframe=  100 fps=4.7 q=49.1 size=     768KiB time=00:00:03.26 bitrate=1926.1kbits/s speed=0.155x elapsed=0:00:21.13    \nframe=  103 fps=4.8 q=47.1 size=    1024KiB time=00:00:03.36 bitrate=2491.8kbits/s speed=0.155x elapsed=0:00:21.65    \nframe=  106 fps=4.8 q=45.0 size=    1024KiB time=00:00:03.46 bitrate=2419.9kbits/s speed=0.156x elapsed=0:00:22.16    \nframe=  109 fps=4.8 q=49.1 size=    1024KiB time=00:00:03.56 bitrate=2352.0kbits/s speed=0.157x elapsed=0:00:22.67    \nframe=  111 fps=4.8 q=46.8 size=    1024KiB time=00:00:03.63 bitrate=2308.9kbits/s speed=0.157x elapsed=0:00:23.19    \nframe=  114 fps=4.8 q=44.9 size=    1024KiB time=00:00:03.73 bitrate=2247.0kbits/s speed=0.157x elapsed=0:00:23.70    \nframe=  117 fps=4.8 q=48.8 size=    1024KiB time=00:00:03.83 bitrate=2188.4kbits/s speed=0.158x elapsed=0:00:24.22    \nframe=  121 fps=4.9 q=48.7 size=    1024KiB time=00:00:03.96 bitrate=2114.9kbits/s speed=0.16x elapsed=0:00:24.73    \nframe=  122 fps=4.8 q=44.9 size=    1024KiB time=00:00:04.00 bitrate=2097.2kbits/s speed=0.158x elapsed=0:00:25.25    \nframe=  125 fps=4.8 q=48.7 size=    1024KiB time=00:00:04.10 bitrate=2046.1kbits/s speed=0.159x elapsed=0:00:25.77    \nframe=  129 fps=4.9 q=48.4 size=    1280KiB time=00:00:04.23 bitrate=2477.0kbits/s speed=0.161x elapsed=0:00:26.28    \nframe=  131 fps=4.9 q=46.6 size=    1280KiB time=00:00:04.30 bitrate=2438.6kbits/s speed=0.16x elapsed=0:00:26.80    \nframe=  134 fps=4.9 q=44.9 size=    1280KiB time=00:00:04.40 bitrate=2383.2kbits/s speed=0.161x elapsed=0:00:27.32    \nframe=  137 fps=4.9 q=48.6 size=    1280KiB time=00:00:04.50 bitrate=2330.2kbits/s speed=0.162x elapsed=0:00:27.83    \nframe=  141 fps=5.0 q=48.5 size=    1280KiB time=00:00:04.63 bitrate=2263.2kbits/s speed=0.163x elapsed=0:00:28.36    \nframe=  143 fps=5.0 q=47.2 size=    1280KiB time=00:00:04.70 bitrate=2231.1kbits/s speed=0.163x elapsed=0:00:28.87    \nframe=  146 fps=5.0 q=49.0 size=    1280KiB time=00:00:04.80 bitrate=2184.6kbits/s speed=0.163x elapsed=0:00:29.39    \n[mp4 @ 0000023269fc1440] Starting second pass: moving the moov atom to the beginning of the file\n[out#0/mp4 @ 0000023269fbab00] video:1500KiB audio:0KiB subtitle:0KiB other streams:0KiB global headers:2KiB muxing overhead: 0.344771%\nframe=  150 fps=5.0 q=48.6 Lsize=    1505KiB time=00:00:04.93 bitrate=2499.5kbits/s speed=0.166x elapsed=0:00:29.80    \nx265 [info]: frame I:      1, Avg QP:43.41  kb/s: 8449.20 \nx265 [info]: frame P:     36, Avg QP:45.32  kb/s: 4893.05 \nx265 [info]: frame B:    113, Avg QP:48.98  kb/s: 1627.60 \nx265 [info]: Weighted P-Frames: Y:16.7% UV:11.1%\n\nencoded 150 frames in 29.38s (5.11 fps), 2456.79 kb/s, Avg QP:48.06\n",
  "seconds": 30.12902283668518,
  "probe_out": {}
}